<?xml version="1.0" standalone="no"?>
<!DOCTYPE svg PUBLIC "-//W3C//DTD SVG 20010904//EN"
 "http://www.w3.org/TR/2001/REC-SVG-20010904/DTD/svg10.dtd">
<svg version="1.0" xmlns="http://www.w3.org/2000/svg"
 width="512.000000pt" height="512.000000pt" viewBox="0 0 512.000000 512.000000"
 preserveAspectRatio="xMidYMid meet">
<metadata>
Created by potrace 1.14, written by Peter Selinger 2001-2017
</metadata>
<g transform="translate(0.000000,512.000000) scale(0.100000,-0.100000)"
fill="#000000" stroke="none">
<path d="M1007 5109 c-97 -23 -199 -106 -251 -204 l-31 -60 -3 -492 c-2 -455
-4 -492 -20 -497 -163 -47 -164 -47 -216 -99 -33 -33 -56 -67 -64 -93 -9 -31
-12 -332 -12 -1260 l0 -1219 24 -50 c43 -92 126 -144 228 -145 l57 0 3 -358 3
-357 31 -60 c39 -74 116 -148 192 -183 l57 -27 1555 0 1555 0 58 27 c80 38
158 115 193 191 l29 62 3 353 3 352 57 0 c102 1 185 53 228 145 l24 50 0 1225
0 1225 -24 51 c-13 27 -43 67 -67 87 -40 34 -59 43 -201 83 -16 5 -18 41 -20
492 l-3 487 -29 62 c-35 76 -113 153 -193 191 l-58 27 -1535 2 c-875 0 -1551
-3 -1573 -8z m3108 -163 c28 -13 62 -36 77 -52 56 -60 58 -75 58 -420 l0 -316
-32 6 c-18 4 -67 11 -108 17 -135 18 -120 -6 -120 192 0 146 -3 178 -19 213
-22 49 -78 97 -130 113 -55 16 -2507 16 -2562 0 -52 -16 -108 -64 -130 -113
-16 -35 -19 -67 -19 -213 0 -198 15 -174 -120 -192 -41 -6 -90 -13 -107 -17
l-33 -6 0 318 c0 289 2 323 19 360 21 46 83 102 132 120 26 10 383 13 1539 13
l1505 1 50 -24z m-295 -406 c18 -18 20 -33 20 -180 l0 -160 -1280 0 -1280 0 0
160 c0 147 2 162 20 180 20 20 33 20 1260 20 1227 0 1240 0 1260 -20z m-2230
-504 c138 -19 278 -49 424 -92 129 -39 364 -130 434 -169 58 -33 164 -35 214
-5 98 57 390 163 578 210 227 56 296 64 555 65 263 0 388 -13 430 -47 l25 -19
0 -945 c0 -931 0 -944 20 -964 30 -30 83 -27 109 6 21 27 21 33 21 825 0 656
2 799 13 799 33 0 109 -34 127 -57 20 -25 20 -41 20 -1234 l0 -1207 -31 -31
c-39 -39 -83 -40 -194 -6 -494 154 -1061 84 -1618 -200 -76 -39 -140 -65 -159
-65 -18 0 -66 19 -112 44 -545 296 -1158 378 -1661 221 -111 -34 -155 -33
-194 6 l-31 31 0 1207 c0 1193 0 1209 20 1234 18 23 94 57 127 57 10 0 13 -27
13 -120 0 -129 9 -162 47 -179 36 -16 51 -14 78 14 l25 24 0 270 c0 293 0 293
57 307 135 34 479 44 663 20z m1225 -35 c-66 -26 -150 -62 -186 -79 l-66 -32
-79 36 c-43 20 -128 56 -189 80 l-110 43 375 0 375 1 -120 -49z m-1221 -2927
c162 -23 412 -93 547 -153 l44 -20 -432 0 c-513 -1 -473 -11 -473 120 l0 81
108 -6 c59 -4 151 -14 206 -22z m2246 -54 c0 -130 39 -120 -472 -120 -491 0
-475 -4 -245 73 228 78 448 119 670 126 l47 1 0 -80z m-2710 -22 c0 -59 6 -95
19 -124 22 -48 82 -101 131 -114 48 -13 2512 -13 2560 0 49 13 109 66 131 114
13 29 19 65 19 124 l0 82 30 0 c16 0 74 -10 130 -21 l100 -22 0 -354 c0 -385
-1 -396 -58 -457 -15 -16 -49 -39 -77 -52 l-50 -24 -1505 0 -1505 0 -50 24
c-27 13 -62 36 -77 52 -57 61 -58 72 -58 457 l0 354 93 21 c50 11 109 21 130
21 l37 1 0 -82z"/>
<path d="M1584 4448 c-22 -10 -44 -47 -44 -74 0 -26 47 -64 80 -64 65 0 93 77
45 125 -26 27 -47 30 -81 13z"/>
<path d="M1916 4439 c-52 -41 -23 -129 44 -129 67 0 96 88 44 129 -15 12 -34
21 -44 21 -10 0 -29 -9 -44 -21z"/>
<path d="M2255 4435 c-48 -48 -20 -125 45 -125 33 0 80 38 80 64 0 28 -22 64
-47 75 -36 16 -51 14 -78 -14z"/>
<path d="M3066 3569 c-59 -132 -196 -435 -371 -819 -226 -496 -428 -906 -476
-966 -16 -20 -29 -41 -29 -45 0 -5 56 -9 125 -9 l124 0 14 28 c8 15 121 295
252 622 131 327 241 599 246 604 4 4 12 -18 19 -50 35 -178 172 -700 276
-1047 24 -82 44 -151 44 -153 0 -2 110 -4 245 -4 135 0 245 2 245 5 0 3 -15
26 -34 52 -62 88 -103 186 -189 453 -119 366 -216 712 -368 1307 -24 95 -47
173 -50 173 -4 0 -37 -68 -73 -151z"/>
<path d="M1520 3622 c0 -5 9 -17 20 -27 31 -28 78 -106 102 -171 l23 -59 5
-815 5 -815 208 -3 207 -2 0 950 0 950 -285 0 c-157 0 -285 -4 -285 -8z"/>
<path d="M744 3165 l-24 -25 2 -812 3 -813 24 -42 c14 -24 42 -55 64 -70 35
-24 50 -28 111 -28 39 0 112 6 161 12 50 7 154 13 232 13 347 0 717 -87 1078
-253 149 -69 181 -69 330 0 437 201 935 293 1310 240 50 -6 122 -12 161 -12
61 0 76 4 111 28 22 15 50 46 64 70 22 38 24 56 27 178 4 132 3 137 -20 164
-32 36 -82 39 -110 6 -15 -20 -18 -42 -18 -146 0 -163 0 -164 -143 -144 -163
22 -511 17 -671 -10 -234 -39 -479 -110 -683 -197 -96 -41 -109 -44 -193 -44
-84 0 -97 3 -193 44 -206 88 -448 158 -682 197 -161 27 -509 32 -672 10 -160
-22 -143 -122 -143 819 l0 797 -23 21 c-31 29 -72 28 -103 -3z"/>
<path d="M2340 518 c-37 -40 -21 -97 34 -118 36 -13 336 -13 372 0 55 21 71
78 34 118 -20 21 -28 22 -220 22 -192 0 -200 -1 -220 -22z"/>
</g>
</svg>
